<?xml version="1.0" standalone="no"?>
<!DOCTYPE svg PUBLIC "-//W3C//DTD SVG 20010904//EN"
 "http://www.w3.org/TR/2001/REC-SVG-20010904/DTD/svg10.dtd">
<svg version="1.0" xmlns="http://www.w3.org/2000/svg"
 width="128.000000pt" height="128.000000pt" viewBox="0 0 128.000000 128.000000"
 preserveAspectRatio="xMidYMid meet">
<metadata>
Created by potrace 1.14, written by Peter Selinger 2001-2017
</metadata>
<g transform="translate(0.000000,128.000000) scale(0.100000,-0.100000)"
fill="#000000" stroke="none">
<path d="M0 640 l0 -640 640 0 640 0 0 80 0 80 -245 0 -245 0 0 55 0 55 245 0
245 0 0 505 0 505 -640 0 -640 0 0 -640z m431 444 c17 -10 41 -31 52 -46 27
-37 28 -122 2 -167 -33 -57 -65 -73 -149 -79 l-76 -5 0 -93 0 -94 -50 0 -50 0
0 256 0 257 119 -5 c93 -4 126 -9 152 -24z m269 -227 c0 -153 9 -177 64 -177
19 0 44 9 57 19 23 18 24 26 27 155 l4 136 49 0 49 0 0 -196 0 -195 -37 3
c-31 2 -39 7 -41 26 -4 27 -6 27 -41 1 -63 -46 -177 -33 -212 25 -16 27 -19
51 -19 184 l0 152 50 0 50 0 0 -133z"/>
<path d="M260 951 l0 -81 44 0 c61 0 96 29 96 79 0 50 -26 73 -90 79 l-50 5 0
-82z"/>
</g>
</svg>
